# xmcd CD database file
#
# Track frame offsets:
#	150
#	19969
#	37313
#	72443
#	104492
#	139239
#	158128
#	163424
#	173720
#	201980
#	216247
#	231888
#
# Disc length: 3603 seconds
#
# Revision: 0
# Processed by: cddbd v1.5.2PL0 Copyright (c) Steve Scherf et al.
# Submitted via: jetAudio 7
#
DISCID=bb0e110c
DTITLE=Various Artits - MUSIC FOR TURKISH ORIENTAL DANCE
DYEAR=1900
DGENRE=Oriental Dance
TTITLE0=Istambul çiftetelli
TTITLE1=Bahriye çiftetelli 
TTITLE2=Hicaz oryantal
TTITLE3=Adana çiftetelli
TTITLE4=Arap oryantal
TTITLE5=Bursa çiftetelli
TTITLE6=Malatya malatya
TTITLE7=Rast oryantal
TTITLE8=Anadolu çiftetelli
TTITLE9=Antep çiftetelli
TTITLE10=Konyalim 
TTITLE11=Aram çiftetelli
EXTD=
EXTT0=
EXTT1=
EXTT2=
EXTT3=
EXTT4=
EXTT5=
EXTT6=
EXTT7=
EXTT8=
EXTT9=
EXTT10=
EXTT11=
PLAYORDER=
